<svg width="41" height="41" viewBox="0 0 41 41" fill="none" stroke="2F80ED" xmlns="http://www.w3.org/2000/svg">
<circle cx="20.5" cy="20.5" r="20" fill="white" stroke="#2F80ED"/>
<path d="M26.4816 14.667C26.6456 14.6943 26.755 14.7764 26.8644 14.8857C26.9464 15.0224 27.0011 15.1592 27.0011 15.2959C27.0011 17.5928 26.4269 19.7256 25.2785 21.6943C24.13 23.6084 22.6261 25.1396 20.712 26.2607C18.7433 27.4092 16.6105 27.9834 14.3136 27.9834C14.1495 27.9834 14.0128 27.956 13.9035 27.8467C13.7667 27.7646 13.6847 27.6279 13.6847 27.4639L13.0285 24.6201C12.9738 24.4834 13.0011 24.3467 13.0831 24.1826C13.1378 24.0459 13.2472 23.9365 13.4113 23.8818L16.4738 22.5693C16.5831 22.5146 16.7199 22.5146 16.8566 22.542C16.9933 22.5967 17.13 22.6514 17.2394 22.7607L18.5792 24.4014C19.6456 23.9092 20.6027 23.2529 21.423 22.4053C22.2433 21.5849 22.9269 20.6279 23.4191 19.5615L21.7785 18.2217C21.6691 18.1123 21.587 18.0029 21.5597 17.8662C21.505 17.7295 21.5324 17.5928 21.587 17.456L22.8995 14.3935C22.9542 14.2568 23.0363 14.1474 23.2003 14.0654C23.337 14.0107 23.4738 13.9834 23.6378 14.0107L26.4816 14.667Z" fill="#111111"/>
</svg>
