<svg width="259" height="259" viewBox="0 0 259 259" fill="none" xmlns="http://www.w3.org/2000/svg">
<circle cx="129.5" cy="129.5" r="129.5" fill="#2F80ED"/>
<path d="M158.214 85C159.159 85 160 85.8073 160 86.7156V94.2844C160 95.1927 159.159 96 158.214 96H98.7865C97.8407 96 97 95.1927 97 94.2844V86.7156C97 85.8073 97.8407 85 98.7865 85H158.214Z" fill="white"/>
<path d="M130.8 109.012C130.539 108.456 130.12 108 129.18 108H128.239C127.402 108 126.932 108.456 126.618 109.012L97.19 170.621C96.6151 171.836 97.3991 173 98.8104 173H107.017C108.533 173 109.369 172.089 109.735 171.178L128.291 130.983H128.552L147.265 171.178C147.945 172.443 148.572 173 149.983 173H158.19C159.601 173 160.385 171.785 159.81 170.621L130.8 109.012Z" fill="white"/>
</svg>
