<svg width="41" height="41" fill="none" stroke="2F80ED" xmlns="http://www.w3.org/2000/svg"><circle cx="20.5" cy="20.5" r="20" fill="#fff" stroke="#2F80ED"/><path d="M26.482 14.667c.164.027.273.11.382.219a.814.814 0 0 1 .137.41c0 2.297-.574 4.43-1.723 6.398-1.148 1.914-2.652 3.446-4.566 4.567a12.478 12.478 0 0 1-6.398 1.722c-.165 0-.301-.027-.41-.136a.436.436 0 0 1-.22-.383l-.655-2.844c-.055-.137-.028-.273.054-.437a.516.516 0 0 1 .328-.301l3.063-1.313a.6.6 0 0 1 .383-.027c.136.055.273.11.382.219l1.34 1.64a9.39 9.39 0 0 0 2.844-1.996 9.894 9.894 0 0 0 1.996-2.844l-1.64-1.34c-.11-.109-.192-.218-.22-.355-.054-.136-.027-.273.028-.41l1.313-3.063a.582.582 0 0 1 .3-.328.782.782 0 0 1 .438-.054l2.844.656Z" fill="#111"/></svg>