<svg width="142" height="142" fill="none" xmlns="http://www.w3.org/2000/svg"><circle cx="71" cy="71" r="70.353" stroke="#fff" stroke-width="1.294"/><path d="M49.15 69.861c.907.489.907 1.79 0 2.278l-8.978 4.834a1.294 1.294 0 0 1-1.906-1.139v-9.668a1.294 1.294 0 0 1 1.906-1.14l8.979 4.835ZM60.632 76.5v-4.77h3.33c2.376 0 3.762-1.656 3.762-3.618s-1.35-3.618-3.762-3.618h-4.824V76.5h1.494Zm3.15-6.102h-3.15v-4.572h3.15c1.422 0 2.394.936 2.394 2.286s-.972 2.286-2.394 2.286ZM76.777 76.5v-1.332h-5.58V64.494h-1.494V76.5h7.074Zm12.38 0-4.842-12.006H82.46L77.637 76.5h1.71l1.062-2.664h5.976l1.062 2.664h1.71Zm-3.222-3.996H80.84l2.556-6.462 2.538 6.462ZM94.57 76.5v-5.076l4.716-6.93H97.54l-3.726 5.58-3.726-5.58h-1.746l4.734 6.93V76.5h1.494Z" fill="#fff"/></svg>