<svg width="259" height="259" fill="none" xmlns="http://www.w3.org/2000/svg"><circle cx="129.5" cy="129.5" r="129.5" fill="#2F80ED"/><path d="M158.214 85c.945 0 1.786.807 1.786 1.716v7.568c0 .909-.841 1.716-1.786 1.716H98.787C97.84 96 97 95.193 97 94.284v-7.568c0-.909.84-1.716 1.787-1.716h59.427ZM130.8 109.012c-.261-.556-.68-1.012-1.62-1.012h-.941c-.837 0-1.307.456-1.621 1.012L97.19 170.621c-.575 1.215.21 2.379 1.62 2.379h8.207c1.516 0 2.352-.911 2.718-1.822l18.556-40.195h.261l18.713 40.195c.68 1.265 1.307 1.822 2.718 1.822h8.207c1.411 0 2.195-1.215 1.62-2.379l-29.01-61.609Z" fill="#fff"/></svg>