<?xml version="1.0" encoding="utf-8"?><svg xmlns="http://www.w3.org/2000/svg" xmlns:xlink="http://www.w3.org/1999/xlink"><symbol fill="none" viewBox="0 0 14 8" id="chevron-down" xmlns="http://www.w3.org/2000/svg"><path d="M12.95.768a.473.473 0 0 1 .087.263c0 .117-.03.176-.088.235L6.826 7.418a.473.473 0 0 1-.263.088c-.118 0-.176-.03-.235-.088L.176 1.266C.117 1.207.088 1.148.088 1.03c0-.088.03-.176.088-.263L.762.182C.82.123.879.094.996.094c.088 0 .176.029.264.088l5.303 5.302L11.864.182c.059-.059.147-.088.264-.088.088 0 .176.029.234.088l.586.586Z" fill="#fff"/></symbol><symbol fill="none" viewBox="0 0 187 30" id="logo" xmlns="http://www.w3.org/2000/svg"><path d="M119.405 0c.315 0 .595.294.595.624v2.752c0 .33-.28.624-.595.624h-19.81C99.28 4 99 3.706 99 3.376V.624c0-.33.28-.624.596-.624h19.809ZM59.897 24.255a.568.568 0 0 0-.774 0c-1.308 1.03-2.89 1.74-4.767 1.74-3.992 0-6.968-3.244-6.968-7.063 0-3.852 2.96-7.113 6.934-7.113 1.738 0 3.493.676 4.8 1.808.242.236.569.236.775 0L61.79 11.7c.24-.236.24-.608-.035-.861C59.64 8.98 57.368 8 54.22 8 48.007 8 43 12.917 43 19.034 43 25.134 48.007 30 54.236 30c2.77 0 5.455-.946 7.571-2.957.224-.22.275-.608.035-.828l-1.945-1.96ZM90.39 8h-2.975a.595.595 0 0 0-.61.591v8.33H76.23v-8.33A.595.595 0 0 0 75.62 8h-3.01c-.323 0-.61.278-.61.591V29.41c0 .313.287.591.61.591h3.01c.36 0 .61-.278.61-.591V20.73h10.576v8.679c0 .313.25.591.61.591h2.975c.322 0 .609-.278.609-.591V8.59c0-.313-.287-.591-.61-.591ZM110.267 8.343c-.087-.189-.227-.343-.54-.343h-.314c-.279 0-.436.154-.54.343l-9.81 20.852c-.191.41.07.805.54.805h2.736c.505 0 .784-.308.906-.617l6.185-13.604h.087l6.238 13.604c.227.428.436.617.906.617h2.736c.47 0 .731-.411.54-.805l-9.67-20.852ZM135.978 8h-7.387a.586.586 0 0 0-.591.591V29.41c0 .313.243.591.591.591h2.885a.61.61 0 0 0 .591-.591v-7.392h3.928c3.842 0 7.005-3.182 7.005-7.078.017-3.791-3.163-6.939-7.022-6.939Zm-.261 10.191h-3.65v-6.33h3.65c1.756 0 3.233 1.322 3.233 3.043 0 1.861-1.477 3.287-3.233 3.287ZM155.423 8h-2.847c-.305 0-.576.278-.576.591V29.41c0 .313.271.591.576.591h2.847c.305 0 .576-.278.576-.591V8.59c.017-.313-.271-.591-.576-.591ZM186.36 8h-2.95a.59.59 0 0 0-.605.586v12.868h-.035l-10.575-10.887-2.098-2.17a1.337 1.337 0 0 0-.959-.397h-.534a.59.59 0 0 0-.604.586v20.62a.59.59 0 0 0 .604.586h2.933a.59.59 0 0 0 .604-.586V15.821h.036l.035.034 12.904 13.73s.391.414.746.414c.516 0 1.138.052 1.138-.569V8.586a.647.647 0 0 0-.64-.586ZM3.423 8H.576C.271 8 0 8.278 0 8.591V29.41c0 .313.271.591.576.591h2.847c.305 0 .576-.278.576-.591V8.59C4.016 8.278 3.728 8 3.423 8ZM34.36 8h-2.95a.59.59 0 0 0-.605.586v12.868h-.035L20.195 10.567l-2.098-2.17A1.337 1.337 0 0 0 17.138 8h-.534a.59.59 0 0 0-.604.586v20.62a.59.59 0 0 0 .604.586h2.933a.59.59 0 0 0 .604-.586V15.821h.036l.035.034 12.904 13.73s.391.414.746.414c.516 0 1.138.052 1.138-.569V8.586A.647.647 0 0 0 34.36 8Z" fill="#2F80ED"/></symbol><symbol fill="none" stroke="2F80ED" viewBox="0 0 41 41" id="phone-icon" xmlns="http://www.w3.org/2000/svg"><circle cx="20.5" cy="20.5" r="20" fill="#fff" stroke="#2F80ED"/><path d="M26.482 14.667c.164.027.273.11.382.219a.814.814 0 0 1 .137.41c0 2.297-.574 4.43-1.723 6.398-1.148 1.914-2.652 3.446-4.566 4.567a12.478 12.478 0 0 1-6.398 1.722c-.165 0-.301-.027-.41-.136a.436.436 0 0 1-.22-.383l-.655-2.844c-.055-.137-.028-.273.054-.437a.516.516 0 0 1 .328-.301l3.063-1.313a.6.6 0 0 1 .383-.027c.136.055.273.11.382.219l1.34 1.64a9.39 9.39 0 0 0 2.844-1.996 9.894 9.894 0 0 0 1.996-2.844l-1.64-1.34c-.11-.109-.192-.218-.22-.355-.054-.136-.027-.273.028-.41l1.313-3.063a.582.582 0 0 1 .3-.328c.137-.054.274-.082.438-.054l2.844.656Z" fill="#111"/></symbol><symbol fill="none" viewBox="0 0 142 142" id="play-video" xmlns="http://www.w3.org/2000/svg"><circle cx="71" cy="71" r="70.353" stroke="#fff" stroke-width="1.294"/><path d="M49.15 69.861c.907.489.907 1.79 0 2.278l-8.978 4.834a1.294 1.294 0 0 1-1.906-1.139v-9.668a1.294 1.294 0 0 1 1.906-1.14l8.979 4.835ZM60.632 76.5v-4.77h3.33c2.376 0 3.762-1.656 3.762-3.618s-1.35-3.618-3.762-3.618h-4.824V76.5h1.494Zm3.15-6.102h-3.15v-4.572h3.15c1.422 0 2.394.936 2.394 2.286s-.972 2.286-2.394 2.286ZM76.777 76.5v-1.332h-5.58V64.494h-1.494V76.5h7.074Zm12.38 0-4.842-12.006H82.46L77.637 76.5h1.71l1.062-2.664h5.976l1.062 2.664h1.71Zm-3.222-3.996H80.84l2.556-6.462 2.538 6.462ZM94.57 76.5v-5.076l4.716-6.93H97.54l-3.726 5.58-3.726-5.58h-1.746l4.734 6.93V76.5h1.494Z" fill="#fff"/></symbol><symbol fill="none" viewBox="0 0 259 259" id="rounded-logo" xmlns="http://www.w3.org/2000/svg"><circle cx="129.5" cy="129.5" r="129.5" fill="#2F80ED"/><path d="M158.214 85c.945 0 1.786.807 1.786 1.716v7.568c0 .909-.841 1.716-1.786 1.716H98.787C97.84 96 97 95.193 97 94.284v-7.568c0-.909.84-1.716 1.787-1.716h59.427ZM130.8 109.012c-.261-.556-.68-1.012-1.62-1.012h-.941c-.837 0-1.307.456-1.621 1.012L97.19 170.621c-.575 1.215.21 2.379 1.62 2.379h8.207c1.516 0 2.352-.911 2.718-1.822l18.556-40.195h.261l18.713 40.195c.68 1.265 1.307 1.822 2.718 1.822h8.207c1.411 0 2.195-1.215 1.62-2.379l-29.01-61.609Z" fill="#fff"/></symbol></svg>